<svg xmlns="http://www.w3.org/2000/svg" viewBox="0 0 1280 640" width="1280" height="640">
  <path d="M0,0H1280V640H0Z" fill="#171C26"/>
  <path d="M353.87890625,214h72a24,24 0 0 1 24,24v52a24,24 0 0 1 -24,24h-72a24,24 0 0 1 -24,-24v-52a24,24 0 0 1 24,-24Z" fill="#F2A33C"/>
  <path d="M355.87890625,312L355.87890625,340L387.87890625,312Z" fill="#F2A33C"/>
  <path d="M363.87890625,244h52a6,6 0 0 1 6,6v0a6,6 0 0 1 -6,6h-52a6,6 0 0 1 -6,-6v0a6,6 0 0 1 6,-6Z" fill="#171C26"/>
  <path d="M363.87890625,270h32a6,6 0 0 1 6,6v0a6,6 0 0 1 -6,6h-32a6,6 0 0 1 -6,-6v0a6,6 0 0 1 6,-6Z" fill="#171C26"/>
  <path d="M510.01 240.89L489.57 240.89L489.57 230.90L542.27 230.90L542.27 240.89L521.87 240.89L521.87 297.10L510.01 297.10L510.01 240.89ZM574.04 298.12L574.04 298.12Q566.53 298.12 561.13 294.97Q555.73 291.81 552.82 286.08Q549.91 280.35 549.91 272.57L549.91 272.57Q549.91 264.93 552.77 259.13Q555.64 253.33 560.91 250.07Q566.17 246.80 573.28 246.80L573.28 246.80Q579.32 246.80 584.50 249.45Q589.68 252.09 592.83 257.62Q595.99 263.15 595.99 271.86L595.99 271.86L595.99 275.51L561.42 275.51Q561.64 282.13 565.13 285.59Q568.61 289.06 574.17 289.06L574.17 289.06Q577.99 289.06 580.72 287.41Q583.46 285.77 584.61 282.62L584.61 282.62L595.23 284.79Q593.45 290.79 587.88 294.46Q582.30 298.12 574.04 298.12ZM561.46 267.64L561.46 267.64L584.74 267.64Q584.21 262.31 581.34 259.09Q578.48 255.87 573.32 255.87L573.32 255.87Q568.04 255.87 564.95 259.27Q561.86 262.67 561.46 267.64ZM619.27 247.42L628.87 247.42L628.87 256.49L619.27 256.49L619.27 283.10Q619.27 285.82 620.40 287.08Q621.53 288.35 624.20 288.35L624.20 288.35Q625.00 288.35 626.29 288.15Q627.58 287.95 628.42 287.77L628.42 287.77L630.24 296.70Q628.33 297.28 626.33 297.52Q624.33 297.77 622.51 297.77L622.51 297.77Q615.36 297.77 611.54 294.21Q607.72 290.66 607.72 284.08L607.72 284.08L607.72 256.49L600.65 256.49L600.65 247.42L607.72 247.42L607.72 235.61L619.27 235.61L619.27 247.42ZM649.57 268.00L649.57 268.00L649.57 297.10L638.02 297.10L638.02 230.90L649.39 230.90L649.39 256.62Q653.93 246.80 664.46 246.80L664.46 246.80Q672.14 246.80 676.81 251.69Q681.48 256.58 681.48 265.51L681.48 265.51L681.48 297.10L669.88 297.10L669.88 267.29Q669.88 262.31 667.30 259.47Q664.72 256.62 660.19 256.62L660.19 256.62Q655.57 256.62 652.57 259.60Q649.57 262.58 649.57 268.00ZM715.69 298.12L715.69 298.12Q708.18 298.12 702.78 294.97Q697.38 291.81 694.47 286.08Q691.56 280.35 691.56 272.57L691.56 272.57Q691.56 264.93 694.43 259.13Q697.29 253.33 702.56 250.07Q707.82 246.80 714.93 246.80L714.93 246.80Q720.98 246.80 726.15 249.45Q731.33 252.09 734.48 257.62Q737.64 263.15 737.64 271.86L737.64 271.86L737.64 275.51L703.07 275.51Q703.29 282.13 706.78 285.59Q710.27 289.06 715.82 289.06L715.82 289.06Q719.64 289.06 722.38 287.41Q725.11 285.77 726.26 282.62L726.26 282.62L736.88 284.79Q735.11 290.79 729.53 294.46Q723.95 298.12 715.69 298.12ZM703.11 267.64L703.11 267.64L726.40 267.64Q725.86 262.31 723.00 259.09Q720.13 255.87 714.98 255.87L714.98 255.87Q709.69 255.87 706.60 259.27Q703.51 262.67 703.11 267.64ZM759.10 297.10L747.55 297.10L747.55 247.42L758.75 247.42L758.75 255.73L759.28 255.73Q760.61 251.42 763.94 249.09Q767.28 246.76 771.54 246.76L771.54 246.76Q773.76 246.76 775.76 247.07L775.76 247.07L775.76 257.69Q775.05 257.51 773.45 257.31Q771.85 257.11 770.30 257.11L770.30 257.11Q765.46 257.11 762.28 260.11Q759.10 263.11 759.10 267.86L759.10 267.86L759.10 297.10Z" fill="#E7EAF0"/>
  <path d="M818.78 297.10L807.13 297.10L807.13 230.90L825.00 230.90L837.57 265.06Q838.24 267.02 839.10 270.15Q839.97 273.28 840.86 276.86Q841.75 280.44 842.50 283.73L842.50 283.73Q843.26 280.48 844.15 276.91Q845.04 273.33 845.90 270.20Q846.77 267.06 847.39 265.06L847.39 265.06L859.83 230.90L877.74 230.90L877.74 297.10L865.92 297.10L865.92 263.69Q865.92 261.20 865.99 257.53Q866.05 253.87 866.16 249.74Q866.27 245.60 866.32 241.65L866.32 241.65Q865.21 245.91 863.96 250.13Q862.72 254.36 861.61 257.91Q860.50 261.47 859.70 263.69L859.70 263.69L847.48 297.10L837.39 297.10L825.00 263.69Q824.20 261.55 823.11 258.09Q822.02 254.62 820.80 250.45Q819.58 246.27 818.33 242.00L818.33 242.00Q818.42 245.74 818.53 249.80Q818.64 253.87 818.71 257.51Q818.78 261.15 818.78 263.69L818.78 263.69L818.78 297.10ZM913.46 297.10L913.46 297.10L891.07 297.10L891.07 230.90L913.91 230.90Q923.77 230.90 930.86 234.87Q937.95 238.85 941.72 246.25Q945.50 253.65 945.50 263.91L945.50 263.91Q945.50 274.26 941.70 281.71Q937.90 289.15 930.73 293.12Q923.55 297.10 913.46 297.10ZM902.93 241.16L902.93 286.84L912.89 286.84Q933.81 286.84 933.81 263.91L933.81 263.91Q933.81 241.16 913.20 241.16L913.20 241.16L902.93 241.16Z" fill="#556078"/>
  <path d="M106.01 412L101.16 412L109.80 387.26L115.42 387.26L124.26 412L119.39 412L117.28 405.87L108.04 405.87L106.01 412ZM110.26 399.15L109.21 402.30L116.07 402.30L114.99 399.15Q114.44 397.44 113.85 395.37Q113.27 393.29 112.57 390.72L112.57 390.72Q111.90 393.31 111.34 395.41Q110.78 397.51 110.26 399.15L110.26 399.15ZM131.68 401.13L131.68 401.13L131.68 412L127.36 412L127.36 393.44L131.44 393.44L131.49 397.14Q133.15 393.21 137.24 393.21L137.24 393.21Q140.11 393.21 141.85 395.03Q143.58 396.86 143.58 400.20L143.58 400.20L143.58 412L139.26 412L139.26 400.86Q139.26 399.00 138.30 397.94Q137.34 396.88 135.64 396.88L135.64 396.88Q133.92 396.88 132.80 397.99Q131.68 399.10 131.68 401.13ZM156.21 412.38L156.21 412.38Q153.51 412.38 151.52 411.18Q149.52 409.97 148.44 407.82Q147.35 405.67 147.35 402.82L147.35 402.82Q147.35 399.93 148.44 397.76Q149.52 395.60 151.52 394.40Q153.51 393.21 156.21 393.21L156.21 393.21Q159.32 393.21 161.47 394.76Q163.62 396.31 164.22 399.03L164.22 399.03L160.18 399.88Q159.83 398.44 158.82 397.57Q157.81 396.71 156.25 396.71L156.25 396.71Q153.99 396.71 152.87 398.45Q151.75 400.20 151.75 402.80L151.75 402.80Q151.75 404.51 152.25 405.89Q152.74 407.27 153.74 408.07Q154.74 408.88 156.25 408.88L156.25 408.88Q157.84 408.88 158.86 407.97Q159.88 407.07 160.23 405.58L160.23 405.58L164.27 406.42Q163.67 409.19 161.51 410.79Q159.35 412.38 156.21 412.38ZM172.28 401.13L172.28 401.13L172.28 412L167.97 412L167.97 387.26L172.22 387.26L172.22 396.88Q173.91 393.21 177.85 393.21L177.85 393.21Q180.72 393.21 182.46 395.03Q184.20 396.86 184.20 400.20L184.20 400.20L184.20 412L179.87 412L179.87 400.86Q179.87 399.00 178.91 397.94Q177.95 396.88 176.25 396.88L176.25 396.88Q174.53 396.88 173.40 397.99Q172.28 399.10 172.28 401.13ZM196.84 412.38L196.84 412.38Q194.13 412.38 192.14 411.18Q190.15 409.97 189.06 407.82Q187.97 405.67 187.97 402.82L187.97 402.82Q187.97 399.93 189.06 397.76Q190.15 395.60 192.14 394.40Q194.13 393.21 196.84 393.21L196.84 393.21Q199.54 393.21 201.54 394.40Q203.53 395.60 204.62 397.76Q205.72 399.93 205.72 402.82L205.72 402.82Q205.72 405.67 204.62 407.82Q203.53 409.97 201.54 411.18Q199.54 412.38 196.84 412.38ZM196.84 408.88L196.84 408.88Q198.35 408.88 199.34 408.07Q200.34 407.25 200.84 405.87Q201.34 404.50 201.34 402.80L201.34 402.80Q201.34 401.09 200.84 399.71Q200.34 398.34 199.34 397.52Q198.35 396.71 196.84 396.71L196.84 396.71Q195.34 396.71 194.35 397.52Q193.35 398.34 192.86 399.71Q192.37 401.09 192.37 402.80L192.37 402.80Q192.37 404.50 192.86 405.87Q193.35 407.25 194.35 408.07Q195.34 408.88 196.84 408.88ZM213.80 412L209.49 412L209.49 393.44L213.67 393.44L213.67 396.54L213.87 396.54Q214.37 394.93 215.61 394.06Q216.86 393.19 218.45 393.19L218.45 393.19Q219.28 393.19 220.03 393.31L220.03 393.31L220.03 397.27Q219.76 397.21 219.17 397.13Q218.57 397.06 217.99 397.06L217.99 397.06Q216.18 397.06 214.99 398.18Q213.80 399.30 213.80 401.08L213.80 401.08L213.80 412ZM231.19 412.38L231.19 412.38Q228.38 412.38 226.36 411.20Q224.35 410.02 223.26 407.88Q222.17 405.74 222.17 402.84L222.17 402.84Q222.17 399.98 223.24 397.81Q224.31 395.65 226.28 394.43Q228.25 393.21 230.90 393.21L230.90 393.21Q233.16 393.21 235.10 394.19Q237.03 395.18 238.21 397.25Q239.39 399.32 239.39 402.57L239.39 402.57L239.39 403.93L226.47 403.93Q226.55 406.41 227.86 407.70Q229.16 409.00 231.24 409.00L231.24 409.00Q232.66 409.00 233.69 408.38Q234.71 407.77 235.14 406.59L235.14 406.59L239.11 407.40Q238.44 409.64 236.36 411.01Q234.27 412.38 231.19 412.38ZM226.49 400.99L226.49 400.99L235.19 400.99Q234.99 399.00 233.92 397.80Q232.85 396.59 230.92 396.59L230.92 396.59Q228.95 396.59 227.79 397.86Q226.64 399.13 226.49 400.99ZM249.93 412.33L249.93 412.33Q247.74 412.33 246.00 411.21Q244.27 410.09 243.27 407.95Q242.28 405.81 242.28 402.75L242.28 402.75Q242.28 399.67 243.29 397.53Q244.30 395.40 246.04 394.30Q247.77 393.21 249.91 393.21L249.91 393.21Q251.57 393.21 252.63 393.76Q253.68 394.32 254.30 395.09Q254.91 395.86 255.24 396.51L255.24 396.51L255.42 396.51L255.42 387.26L259.74 387.26L259.74 412L255.51 412L255.51 409.06L255.24 409.06Q254.89 409.73 254.26 410.49Q253.63 411.25 252.58 411.79Q251.52 412.33 249.93 412.33ZM251.11 408.78L251.11 408.78Q253.22 408.78 254.36 407.11Q255.51 405.44 255.51 402.74L255.51 402.74Q255.51 400.03 254.37 398.40Q253.23 396.76 251.11 396.76L251.11 396.76Q248.92 396.76 247.80 398.45Q246.69 400.15 246.69 402.74L246.69 402.74Q246.69 405.34 247.81 407.06Q248.93 408.78 251.11 408.78ZM280.92 412.38L280.92 412.38Q278.22 412.38 276.23 411.18Q274.23 409.97 273.15 407.82Q272.06 405.67 272.06 402.82L272.06 402.82Q272.06 399.93 273.15 397.76Q274.23 395.60 276.23 394.40Q278.22 393.21 280.92 393.21L280.92 393.21Q284.03 393.21 286.18 394.76Q288.33 396.31 288.93 399.03L288.93 399.03L284.89 399.88Q284.54 398.44 283.53 397.57Q282.52 396.71 280.96 396.71L280.96 396.71Q278.70 396.71 277.58 398.45Q276.46 400.20 276.46 402.80L276.46 402.80Q276.46 404.51 276.96 405.89Q277.46 407.27 278.45 408.07Q279.45 408.88 280.96 408.88L280.96 408.88Q282.55 408.88 283.57 407.97Q284.59 407.07 284.94 405.58L284.94 405.58L288.98 406.42Q288.38 409.19 286.22 410.79Q284.06 412.38 280.92 412.38ZM300.73 412.38L300.73 412.38Q298.02 412.38 296.03 411.18Q294.04 409.97 292.95 407.82Q291.87 405.67 291.87 402.82L291.87 402.82Q291.87 399.93 292.95 397.76Q294.04 395.60 296.03 394.40Q298.02 393.21 300.73 393.21L300.73 393.21Q303.44 393.21 305.43 394.40Q307.42 395.60 308.52 397.76Q309.61 399.93 309.61 402.82L309.61 402.82Q309.61 405.67 308.52 407.82Q307.42 409.97 305.43 411.18Q303.44 412.38 300.73 412.38ZM300.73 408.88L300.73 408.88Q302.24 408.88 303.24 408.07Q304.23 407.25 304.73 405.87Q305.23 404.50 305.23 402.80L305.23 402.80Q305.23 401.09 304.73 399.71Q304.23 398.34 303.24 397.52Q302.24 396.71 300.73 396.71L300.73 396.71Q299.24 396.71 298.24 397.52Q297.24 398.34 296.75 399.71Q296.26 401.09 296.26 402.80L296.26 402.80Q296.26 404.50 296.75 405.87Q297.24 407.25 298.24 408.07Q299.24 408.88 300.73 408.88ZM317.70 412L313.38 412L313.38 393.44L317.43 393.44L317.56 396.98Q318.29 395 319.73 394.07Q321.17 393.14 322.83 393.14L322.83 393.14Q326.38 393.14 327.59 397.17L327.59 397.17Q328.34 395.17 329.95 394.15Q331.56 393.14 333.52 393.14L333.52 393.14Q336.03 393.14 337.72 394.77Q339.41 396.39 339.41 399.48L339.41 399.48L339.41 412L335.10 412L335.10 400.15Q335.10 398.42 334.15 397.62Q333.20 396.83 331.88 396.83L331.88 396.83Q330.30 396.83 329.40 397.81Q328.50 398.79 328.50 400.35L328.50 400.35L328.50 412L324.29 412L324.29 399.95Q324.29 398.54 323.41 397.68Q322.53 396.83 321.15 396.83L321.15 396.83Q319.72 396.83 318.71 397.80Q317.70 398.77 317.70 400.63L317.70 400.63L317.70 412ZM348.31 412L343.99 412L343.99 393.44L348.04 393.44L348.18 396.98Q348.91 395 350.34 394.07Q351.78 393.14 353.44 393.14L353.44 393.14Q356.99 393.14 358.21 397.17L358.21 397.17Q358.95 395.17 360.56 394.15Q362.17 393.14 364.13 393.14L364.13 393.14Q366.64 393.14 368.33 394.77Q370.03 396.39 370.03 399.48L370.03 399.48L370.03 412L365.71 412L365.71 400.15Q365.71 398.42 364.76 397.62Q363.82 396.83 362.49 396.83L362.49 396.83Q360.91 396.83 360.01 397.81Q359.12 398.79 359.12 400.35L359.12 400.35L359.12 412L354.90 412L354.90 399.95Q354.90 398.54 354.02 397.68Q353.14 396.83 351.76 396.83L351.76 396.83Q350.34 396.83 349.32 397.80Q348.31 398.77 348.31 400.63L348.31 400.63L348.31 412ZM382.81 412.38L382.81 412.38Q380.00 412.38 377.99 411.20Q375.97 410.02 374.88 407.88Q373.79 405.74 373.79 402.84L373.79 402.84Q373.79 399.98 374.86 397.81Q375.94 395.65 377.90 394.43Q379.87 393.21 382.53 393.21L382.53 393.21Q384.78 393.21 386.72 394.19Q388.65 395.18 389.83 397.25Q391.01 399.32 391.01 402.57L391.01 402.57L391.01 403.93L378.09 403.93Q378.18 406.41 379.48 407.70Q380.78 409.00 382.86 409.00L382.86 409.00Q384.29 409.00 385.31 408.38Q386.33 407.77 386.76 406.59L386.76 406.59L390.73 407.40Q390.06 409.64 387.98 411.01Q385.90 412.38 382.81 412.38ZM378.11 400.99L378.11 400.99L386.81 400.99Q386.61 399.00 385.54 397.80Q384.47 396.59 382.54 396.59L382.54 396.59Q380.57 396.59 379.41 397.86Q378.26 399.13 378.11 400.99ZM399.03 401.13L399.03 401.13L399.03 412L394.71 412L394.71 393.44L398.80 393.44L398.85 397.14Q400.51 393.21 404.59 393.21L404.59 393.21Q407.46 393.21 409.20 395.03Q410.93 396.86 410.93 400.20L410.93 400.20L410.93 412L406.62 412L406.62 400.86Q406.62 399.00 405.65 397.94Q404.69 396.88 403.00 396.88L403.00 396.88Q401.27 396.88 400.15 397.99Q399.03 399.10 399.03 401.13ZM420.51 393.44L424.10 393.44L424.10 396.83L420.51 396.83L420.51 406.77Q420.51 407.78 420.93 408.26Q421.36 408.73 422.35 408.73L422.35 408.73Q422.65 408.73 423.13 408.65Q423.62 408.58 423.93 408.51L423.93 408.51L424.61 411.85Q423.90 412.07 423.15 412.16Q422.40 412.25 421.72 412.25L421.72 412.25Q419.05 412.25 417.62 410.92Q416.19 409.59 416.19 407.14L416.19 407.14L416.19 396.83L413.55 396.83L413.55 393.44L416.19 393.44L416.19 389.02L420.51 389.02L420.51 393.44ZM434.54 412.38L434.54 412.38Q431.33 412.38 429.25 411.01Q427.17 409.64 426.69 407.12L426.69 407.12L430.72 406.36Q431.45 409.08 434.62 409.08L434.62 409.08Q436.22 409.08 437.15 408.44Q438.09 407.80 438.09 406.85L438.09 406.85Q438.09 405.28 435.58 404.73L435.58 404.73L432.41 404.05Q427.20 402.92 427.20 398.85L427.20 398.85Q427.20 397.13 428.15 395.86Q429.09 394.60 430.78 393.90Q432.46 393.21 434.69 393.21L434.69 393.21Q437.84 393.21 439.68 394.52Q441.51 395.83 442.08 397.99L442.08 397.99L438.22 398.75Q437.89 397.79 437.06 397.11Q436.23 396.43 434.74 396.43L434.74 396.43Q433.38 396.43 432.45 397.03Q431.52 397.64 431.52 398.59L431.52 398.59Q431.52 399.40 432.12 399.92Q432.73 400.45 434.16 400.76L434.16 400.76L437.31 401.42Q442.51 402.54 442.51 406.44L442.51 406.44Q442.51 408.20 441.50 409.53Q440.48 410.87 438.68 411.63Q436.88 412.38 434.54 412.38ZM460.50 393.44L464.52 393.44L464.52 396.83L460.50 396.83L460.50 412L456.20 412L456.20 396.83L452.80 396.83L452.80 393.44L456.20 393.44L456.20 391.66Q456.20 389.82 456.98 388.58Q457.76 387.35 459.07 386.72Q460.37 386.10 461.96 386.10L461.96 386.10Q463.11 386.10 463.99 386.28Q464.87 386.47 465.29 386.62L465.29 386.62L464.41 389.97Q464.12 389.89 463.72 389.80Q463.31 389.70 462.76 389.70L462.76 389.70Q461.55 389.70 461.03 390.30Q460.50 390.90 460.50 392.00L460.50 392.00L460.50 393.44ZM476.03 412.38L476.03 412.38Q473.32 412.38 471.33 411.18Q469.34 409.97 468.25 407.82Q467.16 405.67 467.16 402.82L467.16 402.82Q467.16 399.93 468.25 397.76Q469.34 395.60 471.33 394.40Q473.32 393.21 476.03 393.21L476.03 393.21Q478.73 393.21 480.72 394.40Q482.72 395.60 483.81 397.76Q484.91 399.93 484.91 402.82L484.91 402.82Q484.91 405.67 483.81 407.82Q482.72 409.97 480.72 411.18Q478.73 412.38 476.03 412.38ZM476.03 408.88L476.03 408.88Q477.54 408.88 478.53 408.07Q479.53 407.25 480.03 405.87Q480.53 404.50 480.53 402.80L480.53 402.80Q480.53 401.09 480.03 399.71Q479.53 398.34 478.53 397.52Q477.54 396.71 476.03 396.71L476.03 396.71Q474.53 396.71 473.54 397.52Q472.54 398.34 472.05 399.71Q471.56 401.09 471.56 402.80L471.56 402.80Q471.56 404.50 472.05 405.87Q472.54 407.25 473.54 408.07Q474.53 408.88 476.03 408.88ZM492.99 412L488.68 412L488.68 393.44L492.86 393.44L492.86 396.54L493.06 396.54Q493.56 394.93 494.80 394.06Q496.05 393.19 497.64 393.19L497.64 393.19Q498.47 393.19 499.22 393.31L499.22 393.31L499.22 397.27Q498.95 397.21 498.36 397.13Q497.76 397.06 497.18 397.06L497.18 397.06Q495.37 397.06 494.18 398.18Q492.99 399.30 492.99 401.08L492.99 401.08L492.99 412ZM515.29 412L510.94 412L510.94 387.26L517.61 387.26L522.31 400.03Q522.56 400.76 522.88 401.93Q523.21 403.10 523.54 404.44Q523.87 405.77 524.15 407.00L524.15 407.00Q524.44 405.79 524.77 404.45Q525.10 403.12 525.42 401.95Q525.75 400.78 525.98 400.03L525.98 400.03L530.63 387.26L537.32 387.26L537.32 412L532.90 412L532.90 399.52Q532.90 398.59 532.93 397.22Q532.95 395.85 532.99 394.30Q533.04 392.76 533.05 391.28L533.05 391.28Q532.64 392.88 532.17 394.45Q531.71 396.03 531.29 397.36Q530.88 398.69 530.58 399.52L530.58 399.52L526.01 412L522.25 412L517.61 399.52Q517.31 398.72 516.91 397.42Q516.50 396.13 516.04 394.57Q515.59 393.01 515.12 391.41L515.12 391.41Q515.16 392.81 515.20 394.33Q515.24 395.85 515.26 397.21Q515.29 398.57 515.29 399.52L515.29 399.52L515.29 412ZM547.28 412.38L547.28 412.38Q545.52 412.38 544.11 411.74Q542.70 411.10 541.88 409.86Q541.07 408.61 541.07 406.79L541.07 406.79Q541.07 404.70 542.09 403.54Q543.11 402.39 544.73 401.86Q546.35 401.34 548.14 401.16L548.14 401.16Q550.57 400.89 551.65 400.67Q552.73 400.45 552.73 399.48L552.73 399.48L552.73 399.40Q552.73 398.04 551.90 397.28Q551.07 396.53 549.49 396.53L549.49 396.53Q547.86 396.53 546.90 397.24Q545.94 397.96 545.60 398.87L545.60 398.87L541.60 398.05Q542.42 395.60 544.55 394.40Q546.68 393.21 549.47 393.21L549.47 393.21Q550.78 393.21 552.12 393.51Q553.46 393.82 554.57 394.54Q555.68 395.27 556.36 396.50Q557.04 397.74 557.04 399.60L557.04 399.60L557.04 412L552.91 412L552.91 409.44L552.74 409.44Q552.13 410.64 550.78 411.51Q549.44 412.38 547.28 412.38ZM548.39 409.18L548.39 409.18Q550.38 409.18 551.57 408.03Q552.76 406.89 552.76 405.34L552.76 405.34L552.76 403.15Q552.46 403.38 551.70 403.56Q550.93 403.73 550.08 403.86Q549.22 403.98 548.66 404.06L548.66 404.06Q547.20 404.26 546.23 404.86Q545.25 405.46 545.25 406.74L545.25 406.74Q545.25 407.93 546.13 408.56Q547.01 409.18 548.39 409.18ZM565.94 412L561.62 412L561.62 393.44L565.81 393.44L565.81 396.54L566.01 396.54Q566.50 394.93 567.75 394.06Q569.00 393.19 570.59 393.19L570.59 393.19Q571.42 393.19 572.17 393.31L572.17 393.31L572.17 397.27Q571.90 397.21 571.30 397.13Q570.71 397.06 570.12 397.06L570.12 397.06Q568.31 397.06 567.13 398.18Q565.94 399.30 565.94 401.08L565.94 401.08L565.94 412ZM579.44 412L575.12 412L575.12 387.26L579.44 387.26L579.44 400.93L579.75 400.93L586.44 393.44L591.51 393.44L584.32 401.46L591.94 412L586.76 412L581.03 404.05L579.44 405.76L579.44 412ZM601.32 412.33L601.32 412.33Q599.13 412.33 597.39 411.21Q595.66 410.09 594.66 407.95Q593.67 405.81 593.67 402.75L593.67 402.75Q593.67 399.67 594.68 397.53Q595.69 395.40 597.43 394.30Q599.16 393.21 601.30 393.21L601.30 393.21Q602.96 393.21 604.02 393.76Q605.07 394.32 605.68 395.09Q606.30 395.86 606.63 396.51L606.63 396.51L606.81 396.51L606.81 387.26L611.13 387.26L611.13 412L606.90 412L606.90 409.06L606.63 409.06Q606.28 409.73 605.65 410.49Q605.02 411.25 603.97 411.79Q602.91 412.33 601.32 412.33ZM602.50 408.78L602.50 408.78Q604.61 408.78 605.75 407.11Q606.90 405.44 606.90 402.74L606.90 402.74Q606.90 400.03 605.76 398.40Q604.62 396.76 602.50 396.76L602.50 396.76Q600.31 396.76 599.19 398.45Q598.08 400.15 598.08 402.74L598.08 402.74Q598.08 405.34 599.20 407.06Q600.32 408.78 602.50 408.78ZM623.75 412.38L623.75 412.38Q621.04 412.38 619.05 411.18Q617.06 409.97 615.97 407.82Q614.88 405.67 614.88 402.82L614.88 402.82Q614.88 399.93 615.97 397.76Q617.06 395.60 619.05 394.40Q621.04 393.21 623.75 393.21L623.75 393.21Q626.45 393.21 628.45 394.40Q630.44 395.60 631.53 397.76Q632.63 399.93 632.63 402.82L632.63 402.82Q632.63 405.67 631.53 407.82Q630.44 409.97 628.45 411.18Q626.45 412.38 623.75 412.38ZM623.75 408.88L623.75 408.88Q625.26 408.88 626.25 408.07Q627.25 407.25 627.75 405.87Q628.25 404.50 628.25 402.80L628.25 402.80Q628.25 401.09 627.75 399.71Q627.25 398.34 626.25 397.52Q625.26 396.71 623.75 396.71L623.75 396.71Q622.25 396.71 621.26 397.52Q620.26 398.34 619.77 399.71Q619.28 401.09 619.28 402.80L619.28 402.80Q619.28 404.50 619.77 405.87Q620.26 407.25 621.26 408.07Q622.25 408.88 623.75 408.88ZM644.73 412L640.37 412L634.84 393.44L639.39 393.44L641.21 400.71Q641.56 402.24 641.98 404.02Q642.41 405.81 642.81 407.92L642.81 407.92Q643.20 405.86 643.64 404.07Q644.07 402.29 644.47 400.71L644.47 400.71L646.34 393.44L650.46 393.44L652.29 400.71Q652.65 402.25 653.08 404.04Q653.51 405.82 653.93 407.92L653.93 407.92Q654.31 405.84 654.72 404.06Q655.12 402.27 655.51 400.71L655.51 400.71L657.33 393.44L661.91 393.44L656.37 412L652.00 412L649.83 404.43Q649.45 403.10 649.08 401.53Q648.72 399.96 648.37 398.40L648.37 398.40Q648.02 399.96 647.65 401.54Q647.27 403.12 646.91 404.43L646.91 404.43L644.73 412ZM669.25 401.13L669.25 401.13L669.25 412L664.94 412L664.94 393.44L669.02 393.44L669.07 397.14Q670.73 393.21 674.81 393.21L674.81 393.21Q677.69 393.21 679.42 395.03Q681.16 396.86 681.16 400.20L681.16 400.20L681.16 412L676.84 412L676.84 400.86Q676.84 399.00 675.88 397.94Q674.91 396.88 673.22 396.88L673.22 396.88Q671.49 396.88 670.37 397.99Q669.25 399.10 669.25 401.13ZM688.86 412.28L688.86 412.28Q687.75 412.28 686.97 411.52Q686.20 410.75 686.20 409.63L686.20 409.63Q686.20 408.51 686.97 407.75Q687.75 406.99 688.86 406.99L688.86 406.99Q689.99 406.99 690.76 407.75Q691.53 408.51 691.53 409.63L691.53 409.63Q691.53 410.75 690.76 411.52Q689.99 412.28 688.86 412.28ZM707.83 412L702.99 412L711.62 387.26L717.25 387.26L726.08 412L721.21 412L719.11 405.87L709.86 405.87L707.83 412ZM712.08 399.15L711.04 402.30L717.89 402.30L716.82 399.15Q716.27 397.44 715.68 395.37Q715.09 393.29 714.39 390.72L714.39 390.72Q713.73 393.31 713.16 395.41Q712.60 397.51 712.08 399.15L712.08 399.15ZM737.19 419.34L737.19 419.34Q733.83 419.34 731.81 418.11Q729.78 416.88 729.08 415.04L729.08 415.04L732.74 413.73Q733.17 414.52 734.16 415.29Q735.14 416.05 737.17 416.05L737.17 416.05Q739.18 416.05 740.39 415.11Q741.60 414.17 741.60 412.18L741.60 412.18L741.60 408.68L741.24 408.68Q740.90 409.34 740.29 410.06Q739.68 410.77 738.65 411.24Q737.62 411.72 736.01 411.72L736.01 411.72Q733.88 411.72 732.15 410.71Q730.41 409.71 729.39 407.70Q728.37 405.69 728.37 402.67L728.37 402.67Q728.37 399.63 729.39 397.52Q730.41 395.40 732.16 394.30Q733.90 393.21 736.04 393.21L736.04 393.21Q737.68 393.21 738.75 393.75Q739.81 394.30 740.44 395.07Q741.07 395.85 741.40 396.51L741.40 396.51L741.63 396.51L741.63 393.44L745.87 393.44L745.87 412.05Q745.87 414.54 744.74 416.15Q743.61 417.76 741.65 418.55Q739.69 419.34 737.19 419.34ZM737.22 408.31L737.22 408.31Q739.33 408.31 740.47 406.80Q741.62 405.29 741.62 402.64L741.62 402.64Q741.62 400.00 740.49 398.38Q739.36 396.76 737.22 396.76L737.22 396.76Q735.03 396.76 733.91 398.44Q732.79 400.11 732.79 402.64L732.79 402.64Q732.79 405.21 733.92 406.76Q735.04 408.31 737.22 408.31ZM758.65 412.38L758.65 412.38Q755.85 412.38 753.83 411.20Q751.81 410.02 750.72 407.88Q749.64 405.74 749.64 402.84L749.64 402.84Q749.64 399.98 750.71 397.81Q751.78 395.65 753.75 394.43Q755.71 393.21 758.37 393.21L758.37 393.21Q760.63 393.21 762.56 394.19Q764.50 395.18 765.67 397.25Q766.85 399.32 766.85 402.57L766.85 402.57L766.85 403.93L753.94 403.93Q754.02 406.41 755.32 407.70Q756.63 409.00 758.70 409.00L758.70 409.00Q760.13 409.00 761.15 408.38Q762.17 407.77 762.60 406.59L762.60 406.59L766.57 407.40Q765.91 409.64 763.82 411.01Q761.74 412.38 758.65 412.38ZM753.95 400.99L753.95 400.99L762.65 400.99Q762.45 399.00 761.38 397.80Q760.31 396.59 758.39 396.59L758.39 396.59Q756.41 396.59 755.26 397.86Q754.10 399.13 753.95 400.99ZM774.87 401.13L774.87 401.13L774.87 412L770.55 412L770.55 393.44L774.64 393.44L774.69 397.14Q776.35 393.21 780.43 393.21L780.43 393.21Q783.30 393.21 785.04 395.03Q786.77 396.86 786.77 400.20L786.77 400.20L786.77 412L782.46 412L782.46 400.86Q782.46 399.00 781.50 397.94Q780.53 396.88 778.84 396.88L778.84 396.88Q777.11 396.88 775.99 397.99Q774.87 399.10 774.87 401.13ZM796.35 393.44L799.94 393.44L799.94 396.83L796.35 396.83L796.35 406.77Q796.35 407.78 796.78 408.26Q797.20 408.73 798.20 408.73L798.20 408.73Q798.50 408.73 798.98 408.65Q799.46 408.58 799.77 408.51L799.77 408.51L800.45 411.85Q799.74 412.07 798.99 412.16Q798.25 412.25 797.57 412.25L797.57 412.25Q794.89 412.25 793.46 410.92Q792.04 409.59 792.04 407.14L792.04 407.14L792.04 396.83L789.40 396.83L789.40 393.44L792.04 393.44L792.04 389.02L796.35 389.02L796.35 393.44ZM810.38 412.38L810.38 412.38Q807.18 412.38 805.09 411.01Q803.01 409.64 802.53 407.12L802.53 407.12L806.56 406.36Q807.29 409.08 810.46 409.08L810.46 409.08Q812.06 409.08 813.00 408.44Q813.93 407.80 813.93 406.85L813.93 406.85Q813.93 405.28 811.43 404.73L811.43 404.73L808.26 404.05Q803.04 402.92 803.04 398.85L803.04 398.85Q803.04 397.13 803.99 395.86Q804.94 394.60 806.62 393.90Q808.31 393.21 810.53 393.21L810.53 393.21Q813.69 393.21 815.52 394.52Q817.35 395.83 817.92 397.99L817.92 397.99L814.07 398.75Q813.74 397.79 812.91 397.11Q812.08 396.43 810.58 396.43L810.58 396.43Q809.22 396.43 808.29 397.03Q807.36 397.64 807.36 398.59L807.36 398.59Q807.36 399.40 807.97 399.92Q808.57 400.45 810 400.76L810 400.76L813.15 401.42Q818.35 402.54 818.35 406.44L818.35 406.44Q818.35 408.20 817.34 409.53Q816.33 410.87 814.52 411.63Q812.72 412.38 810.38 412.38ZM834.92 418.94L830.60 418.94L830.60 393.44L834.82 393.44L834.82 396.51L835.10 396.51Q835.42 395.86 836.03 395.09Q836.65 394.32 837.71 393.76Q838.77 393.21 840.41 393.21L840.41 393.21Q842.56 393.21 844.29 394.30Q846.03 395.40 847.05 397.53Q848.07 399.67 848.07 402.75L848.07 402.75Q848.07 405.81 847.06 407.95Q846.06 410.09 844.33 411.21Q842.61 412.33 840.40 412.33L840.40 412.33Q838.80 412.33 837.75 411.79Q836.70 411.25 836.06 410.49Q835.43 409.73 835.10 409.06L835.10 409.06L834.92 409.06L834.92 418.94ZM839.24 408.78L839.24 408.78Q841.39 408.78 842.51 407.06Q843.63 405.34 843.63 402.74L843.63 402.74Q843.63 400.15 842.53 398.45Q841.43 396.76 839.24 396.76L839.24 396.76Q837.09 396.76 835.96 398.40Q834.84 400.03 834.84 402.74L834.84 402.74Q834.84 405.44 835.98 407.11Q837.13 408.78 839.24 408.78ZM856.14 412L851.82 412L851.82 393.44L856.00 393.44L856.00 396.54L856.20 396.54Q856.70 394.93 857.95 394.06Q859.19 393.19 860.78 393.19L860.78 393.19Q861.61 393.19 862.36 393.31L862.36 393.31L862.36 397.27Q862.10 397.21 861.50 397.13Q860.90 397.06 860.32 397.06L860.32 397.06Q858.51 397.06 857.32 398.18Q856.14 399.30 856.14 401.08L856.14 401.08L856.14 412ZM873.37 412.38L873.37 412.38Q870.66 412.38 868.67 411.18Q866.68 409.97 865.59 407.82Q864.50 405.67 864.50 402.82L864.50 402.82Q864.50 399.93 865.59 397.76Q866.68 395.60 868.67 394.40Q870.66 393.21 873.37 393.21L873.37 393.21Q876.07 393.21 878.07 394.40Q880.06 395.60 881.15 397.76Q882.25 399.93 882.25 402.82L882.25 402.82Q882.25 405.67 881.15 407.82Q880.06 409.97 878.07 411.18Q876.07 412.38 873.37 412.38ZM873.37 408.88L873.37 408.88Q874.88 408.88 875.88 408.07Q876.87 407.25 877.37 405.87Q877.87 404.50 877.87 402.80L877.87 402.80Q877.87 401.09 877.37 399.71Q876.87 398.34 875.88 397.52Q874.88 396.71 873.37 396.71L873.37 396.71Q871.87 396.71 870.88 397.52Q869.88 398.34 869.39 399.71Q868.90 401.09 868.90 402.80L868.90 402.80Q868.90 404.50 869.39 405.87Q869.88 407.25 870.88 408.07Q871.87 408.88 873.37 408.88ZM890.33 418.94L886.02 418.94L886.02 393.44L890.24 393.44L890.24 396.51L890.52 396.51Q890.83 395.86 891.45 395.09Q892.06 394.32 893.12 393.76Q894.19 393.21 895.83 393.21L895.83 393.21Q897.97 393.21 899.71 394.30Q901.44 395.40 902.46 397.53Q903.48 399.67 903.48 402.75L903.48 402.75Q903.48 405.81 902.48 407.95Q901.47 410.09 899.75 411.21Q898.02 412.33 895.81 412.33L895.81 412.33Q894.22 412.33 893.17 411.79Q892.11 411.25 891.48 410.49Q890.85 409.73 890.52 409.06L890.52 409.06L890.33 409.06L890.33 418.94ZM894.65 408.78L894.65 408.78Q896.81 408.78 897.93 407.06Q899.05 405.34 899.05 402.74L899.05 402.74Q899.05 400.15 897.95 398.45Q896.84 396.76 894.65 396.76L894.65 396.76Q892.51 396.76 891.38 398.40Q890.25 400.03 890.25 402.74L890.25 402.74Q890.25 405.44 891.40 407.11Q892.54 408.78 894.65 408.78ZM915.29 412.38L915.29 412.38Q912.58 412.38 910.59 411.18Q908.60 409.97 907.51 407.82Q906.42 405.67 906.42 402.82L906.42 402.82Q906.42 399.93 907.51 397.76Q908.60 395.60 910.59 394.40Q912.58 393.21 915.29 393.21L915.29 393.21Q917.99 393.21 919.99 394.40Q921.98 395.60 923.07 397.76Q924.17 399.93 924.17 402.82L924.17 402.82Q924.17 405.67 923.07 407.82Q921.98 409.97 919.99 411.18Q917.99 412.38 915.29 412.38ZM915.29 408.88L915.29 408.88Q916.80 408.88 917.79 408.07Q918.79 407.25 919.29 405.87Q919.79 404.50 919.79 402.80L919.79 402.80Q919.79 401.09 919.29 399.71Q918.79 398.34 917.79 397.52Q916.80 396.71 915.29 396.71L915.29 396.71Q913.79 396.71 912.80 397.52Q911.80 398.34 911.31 399.71Q910.82 401.09 910.82 402.80L910.82 402.80Q910.82 404.50 911.31 405.87Q911.80 407.25 912.80 408.07Q913.79 408.88 915.29 408.88ZM934.96 412.38L934.96 412.38Q931.76 412.38 929.67 411.01Q927.59 409.64 927.11 407.12L927.11 407.12L931.14 406.36Q931.87 409.08 935.04 409.08L935.04 409.08Q936.64 409.08 937.57 408.44Q938.51 407.80 938.51 406.85L938.51 406.85Q938.51 405.28 936.01 404.73L936.01 404.73L932.83 404.05Q927.62 402.92 927.62 398.85L927.62 398.85Q927.62 397.13 928.57 395.86Q929.51 394.60 931.20 393.90Q932.88 393.21 935.11 393.21L935.11 393.21Q938.26 393.21 940.10 394.52Q941.93 395.83 942.50 397.99L942.50 397.99L938.65 398.75Q938.31 397.79 937.48 397.11Q936.65 396.43 935.16 396.43L935.16 396.43Q933.80 396.43 932.87 397.03Q931.94 397.64 931.94 398.59L931.94 398.59Q931.94 399.40 932.54 399.92Q933.15 400.45 934.58 400.76L934.58 400.76L937.73 401.42Q942.93 402.54 942.93 406.44L942.93 406.44Q942.93 408.20 941.92 409.53Q940.90 410.87 939.10 411.63Q937.30 412.38 934.96 412.38ZM954.82 412.38L954.82 412.38Q952.01 412.38 949.99 411.20Q947.98 410.02 946.89 407.88Q945.80 405.74 945.80 402.84L945.80 402.84Q945.80 399.98 946.87 397.81Q947.94 395.65 949.91 394.43Q951.88 393.21 954.53 393.21L954.53 393.21Q956.79 393.21 958.73 394.19Q960.66 395.18 961.84 397.25Q963.02 399.32 963.02 402.57L963.02 402.57L963.02 403.93L950.10 403.93Q950.18 406.41 951.49 407.70Q952.79 409.00 954.87 409.00L954.87 409.00Q956.29 409.00 957.31 408.38Q958.33 407.77 958.77 406.59L958.77 406.59L962.73 407.40Q962.07 409.64 959.99 411.01Q957.90 412.38 954.82 412.38ZM950.12 400.99L950.12 400.99L958.82 400.99Q958.62 399.00 957.55 397.80Q956.48 396.59 954.55 396.59L954.55 396.59Q952.57 396.59 951.42 397.86Q950.27 399.13 950.12 400.99ZM969.84 412.28L969.84 412.28Q968.73 412.28 967.96 411.52Q967.18 410.75 967.18 409.63L967.18 409.63Q967.18 408.51 967.96 407.75Q968.73 406.99 969.84 406.99L969.84 406.99Q970.97 406.99 971.74 407.75Q972.51 408.51 972.51 409.63L972.51 409.63Q972.51 410.75 971.74 411.52Q970.97 412.28 969.84 412.28ZM997.53 412L993.10 412L993.10 402.42L983.97 387.26L989.15 387.26L993.56 395.07Q994.08 395.98 994.51 396.83Q994.94 397.69 995.34 398.72L995.34 398.72Q995.75 397.66 996.18 396.80Q996.60 395.95 997.08 395.07L997.08 395.07L1001.42 387.26L1006.56 387.26L997.53 402.42L997.53 412ZM1017.74 412.38L1017.74 412.38Q1015.03 412.38 1013.04 411.18Q1011.04 409.97 1009.96 407.82Q1008.87 405.67 1008.87 402.82L1008.87 402.82Q1008.87 399.93 1009.96 397.76Q1011.04 395.60 1013.04 394.40Q1015.03 393.21 1017.74 393.21L1017.74 393.21Q1020.44 393.21 1022.43 394.40Q1024.43 395.60 1025.52 397.76Q1026.62 399.93 1026.62 402.82L1026.62 402.82Q1026.62 405.67 1025.52 407.82Q1024.43 409.97 1022.43 411.18Q1020.44 412.38 1017.74 412.38ZM1017.74 408.88L1017.74 408.88Q1019.25 408.88 1020.24 408.07Q1021.24 407.25 1021.74 405.87Q1022.23 404.50 1022.23 402.80L1022.23 402.80Q1022.23 401.09 1021.74 399.71Q1021.24 398.34 1020.24 397.52Q1019.25 396.71 1017.74 396.71L1017.74 396.71Q1016.24 396.71 1015.25 397.52Q1014.25 398.34 1013.76 399.71Q1013.27 401.09 1013.27 402.80L1013.27 402.80Q1013.27 404.50 1013.76 405.87Q1014.25 407.25 1015.25 408.07Q1016.24 408.88 1017.74 408.88ZM1036.74 412.23L1036.74 412.23Q1033.87 412.23 1032.13 410.41Q1030.39 408.58 1030.39 405.24L1030.39 405.24L1030.39 393.44L1034.70 393.44L1034.70 404.58Q1034.70 406.44 1035.67 407.50Q1036.64 408.56 1038.34 408.56L1038.34 408.56Q1040.06 408.56 1041.18 407.45Q1042.29 406.34 1042.29 404.31L1042.29 404.31L1042.29 393.44L1046.62 393.44L1046.62 412L1042.52 412L1042.49 408.28Q1040.83 412.23 1036.74 412.23ZM1066.61 412.33L1066.61 412.33Q1064.42 412.33 1062.68 411.21Q1060.95 410.09 1059.95 407.95Q1058.96 405.81 1058.96 402.75L1058.96 402.75Q1058.96 399.67 1059.97 397.53Q1060.98 395.40 1062.72 394.30Q1064.45 393.21 1066.59 393.21L1066.59 393.21Q1068.25 393.21 1069.31 393.76Q1070.36 394.32 1070.98 395.09Q1071.59 395.86 1071.92 396.51L1071.92 396.51L1072.11 396.51L1072.11 387.26L1076.42 387.26L1076.42 412L1072.19 412L1072.19 409.06L1071.92 409.06Q1071.57 409.73 1070.94 410.49Q1070.31 411.25 1069.26 411.79Q1068.20 412.33 1066.61 412.33ZM1067.79 408.78L1067.79 408.78Q1069.90 408.78 1071.04 407.11Q1072.19 405.44 1072.19 402.74L1072.19 402.74Q1072.19 400.03 1071.05 398.40Q1069.91 396.76 1067.79 396.76L1067.79 396.76Q1065.60 396.76 1064.49 398.45Q1063.37 400.15 1063.37 402.74L1063.37 402.74Q1063.37 405.34 1064.49 407.06Q1065.61 408.78 1067.79 408.78ZM1089.19 412.38L1089.19 412.38Q1086.38 412.38 1084.37 411.20Q1082.35 410.02 1081.26 407.88Q1080.17 405.74 1080.17 402.84L1080.17 402.84Q1080.17 399.98 1081.24 397.81Q1082.32 395.65 1084.28 394.43Q1086.25 393.21 1088.91 393.21L1088.91 393.21Q1091.16 393.21 1093.10 394.19Q1095.03 395.18 1096.21 397.25Q1097.39 399.32 1097.39 402.57L1097.39 402.57L1097.39 403.93L1084.47 403.93Q1084.56 406.41 1085.86 407.70Q1087.16 409.00 1089.24 409.00L1089.24 409.00Q1090.67 409.00 1091.69 408.38Q1092.71 407.77 1093.14 406.59L1093.14 406.59L1097.11 407.40Q1096.44 409.64 1094.36 411.01Q1092.28 412.38 1089.19 412.38ZM1084.49 400.99L1084.49 400.99L1093.19 400.99Q1092.99 399.00 1091.92 397.80Q1090.85 396.59 1088.92 396.59L1088.92 396.59Q1086.95 396.59 1085.79 397.86Q1084.64 399.13 1084.49 400.99ZM1109.14 412.38L1109.14 412.38Q1106.44 412.38 1104.45 411.18Q1102.45 409.97 1101.37 407.82Q1100.28 405.67 1100.28 402.82L1100.28 402.82Q1100.28 399.93 1101.37 397.76Q1102.45 395.60 1104.45 394.40Q1106.44 393.21 1109.14 393.21L1109.14 393.21Q1112.25 393.21 1114.40 394.76Q1116.55 396.31 1117.15 399.03L1117.15 399.03L1113.11 399.88Q1112.76 398.44 1111.75 397.57Q1110.74 396.71 1109.18 396.71L1109.18 396.71Q1106.92 396.71 1105.80 398.45Q1104.68 400.20 1104.68 402.80L1104.68 402.80Q1104.68 404.51 1105.18 405.89Q1105.67 407.27 1106.67 408.07Q1107.67 408.88 1109.18 408.88L1109.18 408.88Q1110.77 408.88 1111.79 407.97Q1112.81 407.07 1113.16 405.58L1113.16 405.58L1117.20 406.42Q1116.60 409.19 1114.44 410.79Q1112.28 412.38 1109.14 412.38ZM1125.21 412L1120.90 412L1120.90 393.44L1125.21 393.44L1125.21 412ZM1123.06 390.82L1123.06 390.82Q1122.03 390.82 1121.29 390.13Q1120.55 389.44 1120.55 388.44L1120.55 388.44Q1120.55 387.46 1121.29 386.77Q1122.03 386.08 1123.06 386.08L1123.06 386.08Q1124.10 386.08 1124.84 386.77Q1125.58 387.46 1125.58 388.44L1125.58 388.44Q1125.58 389.44 1124.84 390.13Q1124.10 390.82 1123.06 390.82ZM1136.64 412.33L1136.64 412.33Q1134.44 412.33 1132.71 411.21Q1130.97 410.09 1129.98 407.95Q1128.98 405.81 1128.98 402.75L1128.98 402.75Q1128.98 399.67 1130.00 397.53Q1131.01 395.40 1132.74 394.30Q1134.48 393.21 1136.62 393.21L1136.62 393.21Q1138.28 393.21 1139.33 393.76Q1140.39 394.32 1141.00 395.09Q1141.62 395.86 1141.95 396.51L1141.95 396.51L1142.13 396.51L1142.13 387.26L1146.45 387.26L1146.45 412L1142.21 412L1142.21 409.06L1141.95 409.06Q1141.60 409.73 1140.97 410.49Q1140.34 411.25 1139.28 411.79Q1138.23 412.33 1136.64 412.33ZM1137.81 408.78L1137.81 408.78Q1139.92 408.78 1141.07 407.11Q1142.21 405.44 1142.21 402.74L1142.21 402.74Q1142.21 400.03 1141.08 398.40Q1139.94 396.76 1137.81 396.76L1137.81 396.76Q1135.62 396.76 1134.51 398.45Q1133.40 400.15 1133.40 402.74L1133.40 402.74Q1133.40 405.34 1134.52 407.06Q1135.64 408.78 1137.81 408.78ZM1159.21 412.38L1159.21 412.38Q1156.41 412.38 1154.39 411.20Q1152.37 410.02 1151.29 407.88Q1150.20 405.74 1150.20 402.84L1150.20 402.84Q1150.20 399.98 1151.27 397.81Q1152.34 395.65 1154.31 394.43Q1156.28 393.21 1158.93 393.21L1158.93 393.21Q1161.19 393.21 1163.12 394.19Q1165.06 395.18 1166.24 397.25Q1167.42 399.32 1167.42 402.57L1167.42 402.57L1167.42 403.93L1154.50 403.93Q1154.58 406.41 1155.89 407.70Q1157.19 409.00 1159.26 409.00L1159.26 409.00Q1160.69 409.00 1161.71 408.38Q1162.73 407.77 1163.17 406.59L1163.17 406.59L1167.13 407.40Q1166.47 409.64 1164.39 411.01Q1162.30 412.38 1159.21 412.38ZM1154.52 400.99L1154.52 400.99L1163.21 400.99Q1163.02 399.00 1161.94 397.80Q1160.87 396.59 1158.95 396.59L1158.95 396.59Q1156.97 396.59 1155.82 397.86Q1154.67 399.13 1154.52 400.99ZM1174.24 412.28L1174.24 412.28Q1173.13 412.28 1172.35 411.52Q1171.58 410.75 1171.58 409.63L1171.58 409.63Q1171.58 408.51 1172.35 407.75Q1173.13 406.99 1174.24 406.99L1174.24 406.99Q1175.37 406.99 1176.14 407.75Q1176.91 408.51 1176.91 409.63L1176.91 409.63Q1176.91 410.75 1176.14 411.52Q1175.37 412.28 1174.24 412.28Z" fill="#AEB6C6"/>
</svg>
